<svg xmlns="http://www.w3.org/2000/svg" width="1200" height="675" viewBox="0 0 1200 675">
  <defs>
    <linearGradient id="bg" x1="0" y1="0" x2="1" y2="1">
      <stop offset="0" stop-color="#0b1220" />
      <stop offset="1" stop-color="#111827" />
    </linearGradient>
    <linearGradient id="accent" x1="0" y1="1" x2="1" y2="0">
      <stop offset="0" stop-color="#22c55e" stop-opacity="0.0" />
      <stop offset="1" stop-color="#22c55e" stop-opacity="0.25" />
    </linearGradient>
  </defs>
  <rect width="1200" height="675" fill="url(#bg)" />
  <rect x="0" y="0" width="1200" height="675" fill="url(#accent)" />

  <g opacity="0.35">
    <path d="M0 520 C 260 420, 430 610, 700 520 C 900 455, 1000 370, 1200 410" fill="none" stroke="#ffffff" stroke-width="2" />
    <path d="M0 420 C 260 320, 430 510, 700 420 C 900 355, 1000 270, 1200 310" fill="none" stroke="#ffffff" stroke-width="2" />
    <path d="M0 320 C 260 220, 430 410, 700 320 C 900 255, 1000 170, 1200 210" fill="none" stroke="#ffffff" stroke-width="2" />
  </g>

  <g fill="#e5e7eb" font-family="system-ui, -apple-system, Segoe UI, Roboto, Arial" text-anchor="middle">
    <text x="600" y="290" font-size="56" font-weight="700">Deep Spark</text>
    <text x="600" y="345" font-size="22" opacity="0.9">Sample placeholder screenshot</text>
    <text x="600" y="395" font-size="18" opacity="0.75">Replace with your real captures in /static/images/</text>
  </g>
</svg>
